<svg id="Layer_1" data-name="Layer 1" xmlns="http://www.w3.org/2000/svg" viewBox="0 0 410 410"><defs><style>.cls-1{fill:#7a7a7a;}.cls-2{fill:#00b5c8;}.cls-3{fill:#272d43;}.cls-4{fill:#81af41;}</style></defs><title>tenet_integration</title><path class="cls-1" d="M284.27,223.11a2,2,0,0,1-2-2V189a2,2,0,0,1,4,0v32.16A2,2,0,0,1,284.27,223.11Z"/><path class="cls-1" d="M229.83,283.79a2,2,0,0,1-1-3.76l29.59-16.24a2,2,0,0,1,1.93,3.51l-29.59,16.24A2,2,0,0,1,229.83,283.79Z"/><path class="cls-1" d="M180.15,283.8a2,2,0,0,1-1-.25L149.57,267.3a2,2,0,0,1,1.92-3.51L181.11,280a2,2,0,0,1-1,3.76Z"/><path class="cls-1" d="M125.68,223.2a2,2,0,0,1-2-2V188.7a2,2,0,0,1,4,0v32.5A2,2,0,0,1,125.68,223.2Z"/><path class="cls-1" d="M150.66,146.37a2,2,0,0,1-1-3.76l29.52-16.2a2,2,0,1,1,1.93,3.51l-29.53,16.2A1.94,1.94,0,0,1,150.66,146.37Z"/><path class="cls-1" d="M259.31,146.38a2,2,0,0,1-1-.25l-29.54-16.21a2,2,0,0,1,1.92-3.51l29.55,16.22a2,2,0,0,1-1,3.75Z"/><path class="cls-1" d="M205.05,268.86a2,2,0,0,1-2-2V236.7a2,2,0,0,1,4,0v30.16A2,2,0,0,1,205.05,268.86Z"/><path class="cls-1" d="M231.79,191.28a2,2,0,0,1-1-3.76l27.69-15.19a2,2,0,1,1,1.92,3.51L232.75,191A2,2,0,0,1,231.79,191.28Z"/><path class="cls-1" d="M178.44,191.31a2,2,0,0,1-1-.25l-27.95-15.35a2,2,0,1,1,1.93-3.51l28,15.36a2,2,0,0,1-1,3.75Z"/><path class="cls-2" d="M284.33,140.25h0A19,19,0,0,1,300.6,169a19,19,0,1,1-16.27-28.78m0-4a23,23,0,1,0,11.83,3.28,23,23,0,0,0-11.83-3.28Z"/><path class="cls-3" d="M284.3,231.78h0A19,19,0,1,1,268,241a18.86,18.86,0,0,1,16.31-9.22m0-4a23,23,0,1,0,11.83,3.29,23,23,0,0,0-11.83-3.29Z"/><path class="cls-2" d="M205.05,277.56h0a19,19,0,1,1-16.31,9.22,19,19,0,0,1,16.31-9.22m0-4a23,23,0,1,0,11.83,3.29,23,23,0,0,0-11.83-3.29Z"/><path class="cls-3" d="M205,94.43a19,19,0,1,1-16.31,9.22A18.93,18.93,0,0,1,205,94.43m0-4a23,23,0,1,0,11.82,3.29A23,23,0,0,0,205,90.43Z"/><path class="cls-2" d="M125.74,140.18a19,19,0,1,1-16.31,9.22,18.91,18.91,0,0,1,16.31-9.22m0-4a23,23,0,1,0,11.82,3.29,23,23,0,0,0-11.82-3.29Z"/><path class="cls-3" d="M125.71,231.78A19,19,0,1,1,109.4,241a19,19,0,0,1,16.31-9.22m0-4a23,23,0,1,0,11.82,3.29,23,23,0,0,0-11.82-3.29Z"/><path class="cls-4" d="M205.12,184.18h0a21,21,0,1,1-18,10.19,20.91,20.91,0,0,1,18-10.19m0-4A25,25,0,1,0,218,183.76a25,25,0,0,0-12.85-3.58Z"/></svg>