<svg id="Layer_1" data-name="Layer 1" xmlns="http://www.w3.org/2000/svg" viewBox="0 0 410 410"><defs><style>.cls-1{fill:#272d43;}.cls-2{fill:#00b5c8;}.cls-3{fill:#7a7a7a;}.cls-4{fill:#81af41;}.cls-5{fill:#80ae40;}</style></defs><title>tenet_forms</title><path class="cls-1" d="M307.21,294.48h0l-181.07-.31a13.65,13.65,0,0,1-13.63-13.64V135.92a13.82,13.82,0,0,1,13.63-13.63H307.21a13.81,13.81,0,0,1,13.63,14V280.85A13.65,13.65,0,0,1,307.21,294.48ZM126.13,126.29a9.76,9.76,0,0,0-9.63,9.63V280.53a9.64,9.64,0,0,0,9.63,9.64l181.08.31a9.64,9.64,0,0,0,9.63-9.63V136.24a9.93,9.93,0,0,0-9.63-10Z"/><rect class="cls-1" x="113.17" y="143.52" width="205.67" height="4"/><path class="cls-2" d="M184.28,255v12h-44V255h44m2-4h-48a2.08,2.08,0,0,0-2,2.15v15.71a2.08,2.08,0,0,0,2,2.14h48a2.08,2.08,0,0,0,2-2.14V253.13a2.08,2.08,0,0,0-2-2.15Z"/><circle class="cls-2" cx="129.34" cy="134.37" r="2.85"/><circle class="cls-3" cx="139.95" cy="134.37" r="2.85"/><circle class="cls-4" cx="150.56" cy="134.37" r="2.85"/><path class="cls-5" d="M285.69,183.12l-6.42-6.42a2,2,0,0,1,2.83-2.83l3.59,3.6,13-13a2,2,0,1,1,2.83,2.83Z"/><path class="cls-5" d="M285.69,212l-6.42-6.42a2,2,0,0,1,2.83-2.83l3.59,3.59,13-13a2,2,0,1,1,2.83,2.83Z"/><path class="cls-5" d="M285.69,240.91l-6.42-6.42a2,2,0,1,1,2.83-2.82l3.59,3.59,13-13a2,2,0,1,1,2.83,2.83Z"/><path class="cls-3" d="M260.31,168.06v12h-120v-12h120m2.71-4H137.6a1.29,1.29,0,0,0-1.29,1.29v17.42a1.29,1.29,0,0,0,1.29,1.29H263a1.29,1.29,0,0,0,1.29-1.29V165.35a1.29,1.29,0,0,0-1.29-1.29Z"/><path class="cls-3" d="M260.31,197v12h-120V197h120m2.71-4H137.6a1.29,1.29,0,0,0-1.29,1.29v17.41a1.3,1.3,0,0,0,1.29,1.3H263a1.3,1.3,0,0,0,1.29-1.3V194.33A1.29,1.29,0,0,0,263,193Z"/><path class="cls-3" d="M260.31,226v12h-120V226h120m2.71-4H137.6a1.29,1.29,0,0,0-1.29,1.29v17.42A1.29,1.29,0,0,0,137.6,242H263a1.29,1.29,0,0,0,1.29-1.29V223.3A1.29,1.29,0,0,0,263,222Z"/></svg>