<svg id="Layer_1" data-name="Layer 1" xmlns="http://www.w3.org/2000/svg" viewBox="0 0 410.05 410.05"><defs><style>.cls-1{fill:none;}.cls-2{fill:#272d43;}.cls-3{fill:#00b5c8;}.cls-4{fill:#7a7a7a;}.cls-5{fill:#81af41;}.cls-6{fill:#80ae40;}</style></defs><title>tenet_analytics</title><rect class="cls-1" x="0.03" y="0.89" width="408" height="405.82"/><path class="cls-2" d="M296.23,291.12h0l-181.07-.31a13.65,13.65,0,0,1-13.63-13.64V132.56a13.65,13.65,0,0,1,13.63-13.63H296.23a13.81,13.81,0,0,1,13.63,13.95V277.49A13.65,13.65,0,0,1,296.23,291.12ZM115.15,122.93a9.64,9.64,0,0,0-9.63,9.63V277.17a9.65,9.65,0,0,0,9.63,9.64l181.08.31a9.64,9.64,0,0,0,9.63-9.63V132.88a9.93,9.93,0,0,0-9.63-9.95Z"/><rect class="cls-2" x="102.19" y="140.16" width="205.67" height="4"/><circle class="cls-3" cx="118.36" cy="131.01" r="2.85"/><circle class="cls-4" cx="128.97" cy="131.01" r="2.85"/><circle class="cls-5" cx="139.58" cy="131.01" r="2.85"/><path class="cls-6" d="M250.43,206.47h-127a6,6,0,0,1-6-6V162.8a6,6,0,0,1,6-6h127a6,6,0,0,1,6,6v37.67A6,6,0,0,1,250.43,206.47Zm-127-45.67a2,2,0,0,0-2,2v37.67a2,2,0,0,0,2,2h127a2,2,0,0,0,2-2V162.8a2,2,0,0,0-2-2Z"/><rect class="cls-6" x="234.47" y="183.22" width="4" height="11.23" transform="translate(-63.84 226.1) rotate(-45.68)"/><path class="cls-6" d="M227.78,189.45a11.14,11.14,0,0,1-1.81-.15,10.71,10.71,0,0,1-8.73-8.73h0a10.68,10.68,0,1,1,18.07,5.75A10.53,10.53,0,0,1,227.78,189.45Zm-6.59-9.53a6.68,6.68,0,1,0,1.86-5.86,6.66,6.66,0,0,0-1.86,5.86Z"/><polygon class="cls-3" points="116.93 272.38 115.77 268.56 161.3 254.68 174.85 263.19 189.63 238.51 213.94 263.2 233.01 223.18 262.17 234.47 283.17 157.61 287.03 158.66 264.86 239.8 235.02 228.25 215.09 270.08 190.4 245 176.18 268.75 160.72 259.04 116.93 272.38"/><polygon class="cls-3" points="292.42 172.84 284.37 159.94 271.46 167.99 269.35 164.6 285.64 154.42 295.81 170.72 292.42 172.84"/></svg>