<svg id="Layer_1" data-name="Layer 1" xmlns="http://www.w3.org/2000/svg" viewBox="0 0 410 410"><defs><style>.cls-1{fill:#272d43;}.cls-2{fill:#00b5c8;}.cls-3{fill:#81af41;}</style></defs><title>tenet_security</title><path class="cls-1" d="M254.16,182.19h-4v-44a21,21,0,0,0-21-21H180.8a21,21,0,0,0-21,21v44h-4v-44a25,25,0,0,1,25-25h48.4a25,25,0,0,1,25,25Z"/><path class="cls-1" d="M233.62,182.19h-4v-40.5a4,4,0,0,0-4-4H184.38a4,4,0,0,0-4,4v40.5h-4v-40.5a8,8,0,0,1,8-8h41.24a8,8,0,0,1,8,8Z"/><path class="cls-1" d="M256.2,296.81H153.8a17.44,17.44,0,0,1-17.42-17.42V199.74a17.44,17.44,0,0,1,17.42-17.43H256.2a17.45,17.45,0,0,1,17.43,17.43v79.65A17.45,17.45,0,0,1,256.2,296.81ZM140.38,273.19v6.2a13.43,13.43,0,0,0,13.42,13.42H256.2a13.44,13.44,0,0,0,13.43-13.42V199.74a13.45,13.45,0,0,0-13.43-13.43H153.8a13.44,13.44,0,0,0-13.42,13.43Z"/><path class="cls-2" d="M255.33,203.52H154.67a2,2,0,0,1,0-4H255.33a2,2,0,0,1,0,4Z"/><path class="cls-2" d="M255.33,280.52H154.67a2,2,0,1,1,0-4H255.33a2,2,0,0,1,0,4Z"/><path class="cls-1" d="M205.16,267a17.42,17.42,0,0,1-8.93-32.38V222.44a8.93,8.93,0,1,1,17.85,0v12.19A17.42,17.42,0,0,1,205.16,267Zm0-49.5a4.93,4.93,0,0,0-4.93,4.93v14.61l-1.1.55a13.42,13.42,0,1,0,12.05,0l-1.1-.55V222.44A4.93,4.93,0,0,0,205.16,217.51Z"/><path class="cls-3" d="M256.09,255.82H242.76a2,2,0,0,1,0-4h13.33a2,2,0,0,1,0,4Z"/><path class="cls-3" d="M256.09,242H242.76a2,2,0,0,1,0-4h13.33a2,2,0,0,1,0,4Z"/><path class="cls-3" d="M256.09,228.22H242.76a2,2,0,0,1,0-4h13.33a2,2,0,0,1,0,4Z"/><path class="cls-3" d="M168,255.82H154.67a2,2,0,0,1,0-4H168a2,2,0,0,1,0,4Z"/><path class="cls-3" d="M168,242H154.67a2,2,0,0,1,0-4H168a2,2,0,0,1,0,4Z"/><path class="cls-3" d="M168,228.22H154.67a2,2,0,0,1,0-4H168a2,2,0,0,1,0,4Z"/></svg>