<svg id="Layer_1" data-name="Layer 1" xmlns="http://www.w3.org/2000/svg" viewBox="0 0 410 410"><defs><style>.cls-1{fill:none;}.cls-2{fill:#00b5c8;}.cls-3{fill:#272d43;}.cls-4,.cls-6{fill:none;stroke-linecap:round;stroke-miterlimit:10;stroke-width:4px;}.cls-4{stroke:#7a7a7a;}.cls-5{fill:#81af41;}.cls-6{stroke:#80ae40;}</style></defs><title>tenet_workflow</title><rect class="cls-1" x="-0.03" y="12.45" width="408" height="382"/><path class="cls-2" d="M109.22,181.08a.24.24,0,0,1,.18.1l23.28,23.28a.2.2,0,0,1,0,.35l-23.09,23.1a.28.28,0,0,1-.18.09s-.11,0-.2-.12L85.77,204.81c-.13-.13-.13-.22,0-.35l23.28-23.28a.24.24,0,0,1,.17-.1m0-4a4.2,4.2,0,0,0-3,1.27L82.94,201.63a4.2,4.2,0,0,0,0,6l23.47,23.1a4.21,4.21,0,0,0,6,0l23.09-23.1a4.2,4.2,0,0,0,0-6l-23.28-23.28a4.24,4.24,0,0,0-3-1.27Z"/><path class="cls-3" d="M323.52,185.09a.75.75,0,0,1,.81.81v37.28a.74.74,0,0,1-.78.81l-37.31-.3a.75.75,0,0,1-.81-.81v-37a.75.75,0,0,1,.81-.81h37.28m0-4H286.24a4.75,4.75,0,0,0-4.81,4.81v37a4.74,4.74,0,0,0,4.81,4.81l37.28.3a4.74,4.74,0,0,0,4.81-4.81V185.9a4.75,4.75,0,0,0-4.81-4.81Z"/><line class="cls-4" x1="145.7" y1="205.18" x2="173.14" y2="205.18"/><path class="cls-3" d="M226.2,185.09a.75.75,0,0,1,.81.81v37.28a.74.74,0,0,1-.78.81l-37.31-.3a.75.75,0,0,1-.81-.81v-37a.75.75,0,0,1,.81-.81H226.2m0-4H188.92a4.75,4.75,0,0,0-4.81,4.81v37a4.74,4.74,0,0,0,4.81,4.81l37.28.3a4.75,4.75,0,0,0,4.81-4.81V185.9a4.76,4.76,0,0,0-4.81-4.81Z"/><line class="cls-4" x1="207.56" y1="255" x2="207.56" y2="237"/><line class="cls-4" x1="207.56" y1="173.66" x2="207.56" y2="155"/><path class="cls-5" d="M207.62,99.78A21.22,21.22,0,1,1,186.4,121a21.24,21.24,0,0,1,21.22-21.22m0-4h0A25.22,25.22,0,0,0,182.4,121h0a25.22,25.22,0,0,0,25.22,25.22h0A25.22,25.22,0,0,0,232.84,121h0a25.22,25.22,0,0,0-25.22-25.22Z"/><polyline class="cls-6" points="217.45 282.36 203.06 296.75 198.05 291.74"/><path class="cls-5" d="M207.62,263.78v4a21.22,21.22,0,0,1,3.84,42.09,21.77,21.77,0,0,1-3.84.35,21.22,21.22,0,0,1-3.84-42.09,21.68,21.68,0,0,1,3.84-.35v-4m0,0a25.22,25.22,0,1,0,24.81,29.77,25.4,25.4,0,0,0-24.81-29.77Z"/><path class="cls-4" d="M109.45,242.42v29.35a11.59,11.59,0,0,0,11.63,11.63l54.06.11m-2-160H121.08a11.67,11.67,0,0,0-11.63,11.63v32.17"/><path class="cls-4" d="M305.79,174.66v-39.5a11.67,11.67,0,0,0-11.63-11.63H241.09"/></svg>