<svg id="Layer_1" data-name="Layer 1" xmlns="http://www.w3.org/2000/svg" viewBox="0 0 410 410"><defs><style>.cls-1{fill:#81af41;}.cls-2{fill:#00b5c8;}.cls-3{fill:#272d43;}.cls-4{fill:#7a7a7a;}</style></defs><title>tenet_apps</title><path class="cls-1" d="M238.16,172.24l1.38,8,.46,2.7,2.7.54a33.24,33.24,0,0,1,9.76,3.86l2.18,1.21,2.05-1.42,6.22-4.33,8.14,8.14-4.33,6.22-1.43,2.05,1.22,2.18a50.16,50.16,0,0,1,4.34,10.13l.71,2.35,2.42.44,7.62,1.36v11.24L274,228.27l-2.69.48-.53,2.68A29.9,29.9,0,0,1,267,241l-1.4,2.24,1.51,2.16,4.33,6.23-8.14,8.14-6.22-4.33L255,254l-2.18,1.22a50.73,50.73,0,0,1-10.13,4.34l-2.35.71-.44,2.42-1.36,7.62H227.33L226,262.71l-.44-2.42-2.35-.71a50.73,50.73,0,0,1-10.13-4.34L210.87,254l-2.05,1.43-6.22,4.33-8.14-8.14,4.33-6.23,1.42-2L199,241.19a49.6,49.6,0,0,1-4.34-10.13L194,228.7l-2.42-.43-7.62-1.36V215.67l7.62-1.36,2.68-.48.54-2.68a33.24,33.24,0,0,1,3.86-9.76l1.21-2.18-1.42-2.05-4.33-6.22,8.14-8.14,6.22,4.33,2,1.42,2.18-1.21A49.6,49.6,0,0,1,222.79,183l2.35-.71.44-2.42,1.36-7.63h11.22m3.37-4H223.59l-2,10.93a54.21,54.21,0,0,0-10.92,4.68l-9-6.24-12.87,12.87,6.24,9a37.49,37.49,0,0,0-4.29,10.92l-10.92,1.95v17.94l10.92,2a54.21,54.21,0,0,0,4.68,10.92l-6.24,9L202.14,265l9-6.24A54.21,54.21,0,0,0,222,263.41L224,274.33h17.94l2-10.92a54.21,54.21,0,0,0,10.92-4.68l9,6.24,12.87-12.87-6.24-9a33.64,33.64,0,0,0,4.29-10.92l10.92-2V212.32l-10.92-1.95A54.21,54.21,0,0,0,270,199.45l6.24-9-12.87-12.87-9,6.24a37.49,37.49,0,0,0-10.92-4.29l-1.95-11.32Z"/><path class="cls-1" d="M232.75,201.69c10.73,0,19.8,8.89,19.8,19.4a21.13,21.13,0,0,1-5.91,14,19.41,19.41,0,0,1-13.89,5.79A19.63,19.63,0,0,1,213,221.48a21.13,21.13,0,0,1,5.91-14,19.36,19.36,0,0,1,13.88-5.79m0-4a23.31,23.31,0,0,0-16.77,7,25,25,0,0,0-7,16.77,23.56,23.56,0,0,0,23.79,23.41,23.29,23.29,0,0,0,16.78-7,25,25,0,0,0,7-16.77c0-12.87-10.92-23.4-23.8-23.4Z"/><path class="cls-2" d="M155.42,254.12l2.4,4.07a4,4,0,0,0,3.44,2h.34c.49,0,1.06-.06,1.67-.06,1.66,0,3.48.15,5.08.28h.33a4,4,0,0,0,3.33-1.77l2.6-3.9,7.1,3.11-1,4.43a4,4,0,0,0,1.4,4.06,20.52,20.52,0,0,1,4.58,4.63,4,4,0,0,0,3.32,1.77,3.84,3.84,0,0,0,.83-.09l4.68-1,2.66,6.63-4,2.38a4,4,0,0,0-2,3.78,43,43,0,0,1-.22,6.75,4,4,0,0,0,1.77,3.66l3.89,2.6-3.11,7.1-4.43-1a3.67,3.67,0,0,0-.92-.11A4,4,0,0,0,186,304.9a21,21,0,0,1-4.63,4.58,4,4,0,0,0-1.68,4.14l1,4.64L173.58,321l-2.4-3.81a4,4,0,0,0-3.39-1.87h-.33c-.5,0-1.07.06-1.69.06-1.63,0-3.31-.14-4.68-.25h-.33a4,4,0,0,0-3.32,1.77l-2.6,3.9-7.1-3.11,1-4.43a4,4,0,0,0-1.41-4.06,21,21,0,0,1-4.58-4.63,4,4,0,0,0-4.15-1.68l-4.63,1-2.74-7.09,3.81-2.4a4,4,0,0,0,1.86-3.72,41.09,41.09,0,0,1,.22-6.76,4,4,0,0,0-1.76-3.65l-3.9-2.6,3.11-7.1,4.44,1a4,4,0,0,0,4-1.41,21,21,0,0,1,4.63-4.58,4,4,0,0,0,1.68-4.15l-1-4.63,7-2.71m1.73-5-13.34,5.16,1.69,8a24.8,24.8,0,0,0-5.54,5.41l-7.68-1.81-5.78,13.22,6.67,4.47A45.91,45.91,0,0,0,133,291l-6.6,4.15,5.16,13.34,8-1.69a24.58,24.58,0,0,0,5.41,5.54L143.08,320l13.22,5.78,4.47-6.67c1.4.11,3.21.26,5,.26.68,0,1.37,0,2-.07l4.16,6.6,13.34-5.16-1.69-8a25,25,0,0,0,5.53-5.41l7.68,1.81L202.59,296l-6.67-4.47a47,47,0,0,0,.22-7.41l7-4.12-5.19-13-8,1.7a24.8,24.8,0,0,0-5.41-5.54l1.81-7.68-13.22-5.78-4.47,6.67c-1.69-.14-3.59-.29-5.41-.29-.69,0-1.36,0-2,.07l-4.12-7Z"/><path class="cls-2" d="M165,274.2c.24,0,.48,0,.72,0a10.66,10.66,0,0,1,3.94.7l.08,0,.09,0a13.53,13.53,0,0,1,7.37,7.5,12.58,12.58,0,0,1-.16,9.91l-.05.09,0,.1a13.14,13.14,0,0,1-12.33,8.3l-.72,0a10.66,10.66,0,0,1-3.94-.7l-.11-.05-.11,0a12.66,12.66,0,0,1-7.39-7.24l0-.07,0-.06a11.65,11.65,0,0,1,.19-9.82l.1-.19.07-.2A13.14,13.14,0,0,1,165,274.2m0-4A17.21,17.21,0,0,0,149,281a15.75,15.75,0,0,0-.31,13.26,16.59,16.59,0,0,0,9.65,9.5,14.37,14.37,0,0,0,5.41,1.07l.93,0a17.21,17.21,0,0,0,16.05-10.84c4-8.77-.55-19.17-9.34-22.76a14.41,14.41,0,0,0-5.41-1.07l-.93,0Z"/><path class="cls-3" d="M297.53,302.32H209.75a2,2,0,0,1,0-4h87.78a9.65,9.65,0,0,0,9.63-9.64h0V144.07a9.92,9.92,0,0,0-9.63-9.94H116.45a9.76,9.76,0,0,0-9.63,9.63V288.37a9.64,9.64,0,0,0,9.63,9.63h1.63a2,2,0,0,1,0,4h-1.63a13.64,13.64,0,0,1-13.63-13.63V143.76a13.81,13.81,0,0,1,13.63-13.63H297.53a13.8,13.8,0,0,1,13.63,13.94V288.66h0A13.65,13.65,0,0,1,297.53,302.32Z"/><rect class="cls-3" x="103.49" y="151.36" width="205.67" height="4"/><circle class="cls-2" cx="119.66" cy="142.46" r="2.85"/><circle class="cls-4" cx="130.27" cy="142.46" r="2.85"/><circle class="cls-1" cx="140.88" cy="142.46" r="2.85"/><path class="cls-4" d="M178.25,183.49h-8a2,2,0,0,1,0-4h8a2,2,0,0,1,0,4Z"/><path class="cls-4" d="M174.75,196.16h-45.5a2,2,0,0,1,0-4h45.5a2,2,0,0,1,0,4Z"/><path class="cls-4" d="M162.75,208.83h-9a2,2,0,0,1,0-4h9a2,2,0,0,1,0,4Z"/></svg>